<svg width="48" height="48" viewBox="0 0 48 48" fill="none" xmlns="http://www.w3.org/2000/svg">
<g clip-path="url(#clip0_701_21533)">
<path d="M32.0581 27.6062L36.1223 24.05C37.062 23.2284 37.6009 22.0411 37.6008 20.793V4.80024C37.5982 2.15026 35.4506 0.00268536 32.8005 0H15.1997C12.5497 0.00268536 10.4021 2.15026 10.3994 4.80024V20.9322C10.3967 22.0805 10.8529 23.1822 11.6667 23.9923L15.0621 27.3877C15.9608 28.2903 17.183 28.7964 18.4566 28.7934H19.1663L18.6327 41.6021L18.5046 44.667C18.4685 45.5385 18.7895 46.387 19.3936 47.0162C19.9978 47.6454 20.8325 48.0007 21.7048 48H26.3002C27.1727 48.0008 28.0075 47.6453 28.6117 47.016C29.2158 46.3866 29.5369 45.5379 29.5004 44.6663L29.3676 41.6021L28.834 28.7935H28.8972C30.0598 28.7935 31.183 28.3717 32.0581 27.6062ZM27.7331 40.802H20.2671L20.7671 28.8014H27.2331L27.7331 40.802ZM27.4523 45.9102C27.1514 46.2258 26.7339 46.4038 26.2979 46.4023H21.7024C21.2663 46.4027 20.8489 46.225 20.5468 45.9104C20.2447 45.5958 20.0843 45.1715 20.1023 44.7358L20.2 42.4021H27.8003L27.8971 44.735C27.9167 45.1713 27.7558 45.5964 27.4523 45.9102ZM16.1933 26.2565L12.7996 22.8611C12.2895 22.3484 12.002 21.6554 11.9995 20.9322V4.80024C11.9995 3.03288 13.4323 1.60008 15.1997 1.60008H32.8005C34.5679 1.60008 36.0007 3.03288 36.0007 4.80024V20.793C36.0003 21.5795 35.6609 22.3277 35.0694 22.8459L31.0052 26.4013C30.4217 26.912 29.6726 27.1935 28.8971 27.1934H18.4566C17.6074 27.1955 16.7926 26.8582 16.1933 26.2565Z" fill="#0867D6"/>
<path d="M32.0581 27.6062L36.1223 24.05C37.062 23.2284 37.6009 22.0411 37.6008 20.793V4.80024C37.5982 2.15026 35.4506 0.00268536 32.8005 0H15.1997C12.5497 0.00268536 10.4021 2.15026 10.3994 4.80024V20.9322C10.3967 22.0805 10.8529 23.1822 11.6667 23.9923L15.0621 27.3877C15.9608 28.2903 17.183 28.7964 18.4566 28.7934H19.1663L18.6327 41.6021L18.5046 44.667C18.4685 45.5385 18.7895 46.387 19.3936 47.0162C19.9978 47.6454 20.8325 48.0007 21.7048 48H26.3002C27.1727 48.0008 28.0075 47.6453 28.6117 47.016C29.2158 46.3866 29.5369 45.5379 29.5004 44.6663L29.3676 41.6021L28.834 28.7935H28.8972C30.0598 28.7935 31.183 28.3717 32.0581 27.6062ZM27.7331 40.802H20.2671L20.7671 28.8014H27.2331L27.7331 40.802ZM27.4523 45.9102C27.1514 46.2258 26.7339 46.4038 26.2979 46.4023H21.7024C21.2663 46.4027 20.8489 46.225 20.5468 45.9104C20.2447 45.5958 20.0843 45.1715 20.1023 44.7358L20.2 42.4021H27.8003L27.8971 44.735C27.9167 45.1713 27.7558 45.5964 27.4523 45.9102ZM16.1933 26.2565L12.7996 22.8611C12.2895 22.3484 12.002 21.6554 11.9995 20.9322V4.80024C11.9995 3.03288 13.4323 1.60008 15.1997 1.60008H32.8005C34.5679 1.60008 36.0007 3.03288 36.0007 4.80024V20.793C36.0003 21.5795 35.6609 22.3277 35.0694 22.8459L31.0052 26.4013C30.4217 26.912 29.6726 27.1935 28.8971 27.1934H18.4566C17.6074 27.1955 16.7926 26.8582 16.1933 26.2565Z" fill="#0696E7"/>
<path d="M32.0581 27.6062L36.1223 24.05C37.062 23.2284 37.6009 22.0411 37.6008 20.793V4.80024C37.5982 2.15026 35.4506 0.00268536 32.8005 0H15.1997C12.5497 0.00268536 10.4021 2.15026 10.3994 4.80024V20.9322C10.3967 22.0805 10.8529 23.1822 11.6667 23.9923L15.0621 27.3877C15.9608 28.2903 17.183 28.7964 18.4566 28.7934H19.1663L18.6327 41.6021L18.5046 44.667C18.4685 45.5385 18.7895 46.387 19.3936 47.0162C19.9978 47.6454 20.8325 48.0007 21.7048 48H26.3002C27.1727 48.0008 28.0075 47.6453 28.6117 47.016C29.2158 46.3866 29.5369 45.5379 29.5004 44.6663L29.3676 41.6021L28.834 28.7935H28.8972C30.0598 28.7935 31.183 28.3717 32.0581 27.6062ZM27.7331 40.802H20.2671L20.7671 28.8014H27.2331L27.7331 40.802ZM27.4523 45.9102C27.1514 46.2258 26.7339 46.4038 26.2979 46.4023H21.7024C21.2663 46.4027 20.8489 46.225 20.5468 45.9104C20.2447 45.5958 20.0843 45.1715 20.1023 44.7358L20.2 42.4021H27.8003L27.8971 44.735C27.9167 45.1713 27.7558 45.5964 27.4523 45.9102ZM16.1933 26.2565L12.7996 22.8611C12.2895 22.3484 12.002 21.6554 11.9995 20.9322V4.80024C11.9995 3.03288 13.4323 1.60008 15.1997 1.60008H32.8005C34.5679 1.60008 36.0007 3.03288 36.0007 4.80024V20.793C36.0003 21.5795 35.6609 22.3277 35.0694 22.8459L31.0052 26.4013C30.4217 26.912 29.6726 27.1935 28.8971 27.1934H18.4566C17.6074 27.1955 16.7926 26.8582 16.1933 26.2565Z" fill="#208EE2"/>
<path d="M29.9508 25.2013L33.8543 21.7867C34.2027 21.4817 34.4021 21.0409 34.4006 20.5778V4.80027C34.4006 3.91655 33.6843 3.2002 32.8006 3.2002H15.1997C14.316 3.2002 13.5996 3.91655 13.5996 4.80027V20.7363C13.5984 21.1611 13.7675 21.5686 14.0692 21.8675L17.323 25.1213C17.6228 25.4234 18.0311 25.5929 18.4567 25.5917H28.8972C29.2841 25.5932 29.6584 25.4546 29.9508 25.2013ZM32.8006 4.80027V14.4007H27.2171C27.7229 13.7411 27.9981 12.9335 28.0003 12.1022C27.8884 11.1321 27.4828 10.2194 26.8379 9.48615C26.3623 8.87894 25.9843 8.20112 25.7179 7.47726C25.5762 7.00258 25.21 6.62798 24.7386 6.47562C24.2599 6.31956 23.735 6.40928 23.3354 6.71565C21.8537 7.85013 20.0705 9.6806 20 11.9695C19.9848 12.8511 20.2768 13.7107 20.8257 14.4008H15.1998V4.80027H32.8006ZM21.6 12.0174C21.6512 10.2918 23.2801 8.77729 24.2137 8.02278C24.5281 8.87712 24.9702 9.67878 25.525 10.4005C25.9525 10.887 26.2532 11.4715 26.4002 12.1022C26.3991 12.7169 26.1454 13.3041 25.6986 13.7262C25.2137 14.1885 24.5604 14.4315 23.8913 14.3983C22.613 14.3469 21.6025 13.2968 21.6 12.0174ZM15.1997 20.7379V16.0008H32.8006V20.5787L28.8972 23.9932H18.4566L15.1997 20.7379Z" fill="#0867D6"/>
<path d="M29.9508 25.2013L33.8543 21.7867C34.2027 21.4817 34.4021 21.0409 34.4006 20.5778V4.80027C34.4006 3.91655 33.6843 3.2002 32.8006 3.2002H15.1997C14.316 3.2002 13.5996 3.91655 13.5996 4.80027V20.7363C13.5984 21.1611 13.7675 21.5686 14.0692 21.8675L17.323 25.1213C17.6228 25.4234 18.0311 25.5929 18.4567 25.5917H28.8972C29.2841 25.5932 29.6584 25.4546 29.9508 25.2013ZM32.8006 4.80027V14.4007H27.2171C27.7229 13.7411 27.9981 12.9335 28.0003 12.1022C27.8884 11.1321 27.4828 10.2194 26.8379 9.48615C26.3623 8.87894 25.9843 8.20112 25.7179 7.47726C25.5762 7.00258 25.21 6.62798 24.7386 6.47562C24.2599 6.31956 23.735 6.40928 23.3354 6.71565C21.8537 7.85013 20.0705 9.6806 20 11.9695C19.9848 12.8511 20.2768 13.7107 20.8257 14.4008H15.1998V4.80027H32.8006ZM21.6 12.0174C21.6512 10.2918 23.2801 8.77729 24.2137 8.02278C24.5281 8.87712 24.9702 9.67878 25.525 10.4005C25.9525 10.887 26.2532 11.4715 26.4002 12.1022C26.3991 12.7169 26.1454 13.3041 25.6986 13.7262C25.2137 14.1885 24.5604 14.4315 23.8913 14.3983C22.613 14.3469 21.6025 13.2968 21.6 12.0174ZM15.1997 20.7379V16.0008H32.8006V20.5787L28.8972 23.9932H18.4566L15.1997 20.7379Z" fill="#0696E7"/>
<path d="M29.9508 25.2013L33.8543 21.7867C34.2027 21.4817 34.4021 21.0409 34.4006 20.5778V4.80027C34.4006 3.91655 33.6843 3.2002 32.8006 3.2002H15.1997C14.316 3.2002 13.5996 3.91655 13.5996 4.80027V20.7363C13.5984 21.1611 13.7675 21.5686 14.0692 21.8675L17.323 25.1213C17.6228 25.4234 18.0311 25.5929 18.4567 25.5917H28.8972C29.2841 25.5932 29.6584 25.4546 29.9508 25.2013ZM32.8006 4.80027V14.4007H27.2171C27.7229 13.7411 27.9981 12.9335 28.0003 12.1022C27.8884 11.1321 27.4828 10.2194 26.8379 9.48615C26.3623 8.87894 25.9843 8.20112 25.7179 7.47726C25.5762 7.00258 25.21 6.62798 24.7386 6.47562C24.2599 6.31956 23.735 6.40928 23.3354 6.71565C21.8537 7.85013 20.0705 9.6806 20 11.9695C19.9848 12.8511 20.2768 13.7107 20.8257 14.4008H15.1998V4.80027H32.8006ZM21.6 12.0174C21.6512 10.2918 23.2801 8.77729 24.2137 8.02278C24.5281 8.87712 24.9702 9.67878 25.525 10.4005C25.9525 10.887 26.2532 11.4715 26.4002 12.1022C26.3991 12.7169 26.1454 13.3041 25.6986 13.7262C25.2137 14.1885 24.5604 14.4315 23.8913 14.3983C22.613 14.3469 21.6025 13.2968 21.6 12.0174ZM15.1997 20.7379V16.0008H32.8006V20.5787L28.8972 23.9932H18.4566L15.1997 20.7379Z" fill="#208EE2"/>
<path d="M19.2 17.6011H17.5999C17.1581 17.6011 16.7998 17.9593 16.7998 18.4012C16.7998 18.843 17.158 19.2012 17.5999 19.2012H19.2C19.6418 19.2012 20 18.843 20 18.4012C20 17.9593 19.6418 17.6011 19.2 17.6011Z" fill="#0867D6"/>
<path d="M19.2 17.6011H17.5999C17.1581 17.6011 16.7998 17.9593 16.7998 18.4012C16.7998 18.843 17.158 19.2012 17.5999 19.2012H19.2C19.6418 19.2012 20 18.843 20 18.4012C20 17.9593 19.6418 17.6011 19.2 17.6011Z" fill="#0696E7"/>
<path d="M19.2 17.6011H17.5999C17.1581 17.6011 16.7998 17.9593 16.7998 18.4012C16.7998 18.843 17.158 19.2012 17.5999 19.2012H19.2C19.6418 19.2012 20 18.843 20 18.4012C20 17.9593 19.6418 17.6011 19.2 17.6011Z" fill="#208EE2"/>
<path d="M23.2005 19.2012H24.8005C25.2424 19.2012 25.6005 18.843 25.6005 18.4012C25.6005 17.9593 25.2424 17.6011 24.8005 17.6011H23.2005C22.7586 17.6011 22.4004 17.9593 22.4004 18.4012C22.4005 18.843 22.7586 19.2012 23.2005 19.2012Z" fill="#0867D6"/>
<path d="M23.2005 19.2012H24.8005C25.2424 19.2012 25.6005 18.843 25.6005 18.4012C25.6005 17.9593 25.2424 17.6011 24.8005 17.6011H23.2005C22.7586 17.6011 22.4004 17.9593 22.4004 18.4012C22.4005 18.843 22.7586 19.2012 23.2005 19.2012Z" fill="#0696E7"/>
<path d="M23.2005 19.2012H24.8005C25.2424 19.2012 25.6005 18.843 25.6005 18.4012C25.6005 17.9593 25.2424 17.6011 24.8005 17.6011H23.2005C22.7586 17.6011 22.4004 17.9593 22.4004 18.4012C22.4005 18.843 22.7586 19.2012 23.2005 19.2012Z" fill="#208EE2"/>
<path d="M31.2001 18.4012C31.2001 17.9593 30.8419 17.6011 30.4001 17.6011H28.8C28.3582 17.6011 28 17.9593 28 18.4012C28 18.843 28.3582 19.2012 28.8 19.2012H30.4001C30.8419 19.2012 31.2001 18.843 31.2001 18.4012Z" fill="#0867D6"/>
<path d="M31.2001 18.4012C31.2001 17.9593 30.8419 17.6011 30.4001 17.6011H28.8C28.3582 17.6011 28 17.9593 28 18.4012C28 18.843 28.3582 19.2012 28.8 19.2012H30.4001C30.8419 19.2012 31.2001 18.843 31.2001 18.4012Z" fill="#0696E7"/>
<path d="M31.2001 18.4012C31.2001 17.9593 30.8419 17.6011 30.4001 17.6011H28.8C28.3582 17.6011 28 17.9593 28 18.4012C28 18.843 28.3582 19.2012 28.8 19.2012H30.4001C30.8419 19.2012 31.2001 18.843 31.2001 18.4012Z" fill="#208EE2"/>
<path d="M26.4001 20.8013H21.5999C21.1581 20.8013 20.7998 21.1594 20.7998 21.6013C20.7998 22.0432 21.158 22.4013 21.5999 22.4013H26.4001C26.8419 22.4013 27.2001 22.0432 27.2001 21.6013C27.2001 21.1595 26.842 20.8013 26.4001 20.8013Z" fill="#0867D6"/>
<path d="M26.4001 20.8013H21.5999C21.1581 20.8013 20.7998 21.1594 20.7998 21.6013C20.7998 22.0432 21.158 22.4013 21.5999 22.4013H26.4001C26.8419 22.4013 27.2001 22.0432 27.2001 21.6013C27.2001 21.1595 26.842 20.8013 26.4001 20.8013Z" fill="#0696E7"/>
<path d="M26.4001 20.8013H21.5999C21.1581 20.8013 20.7998 21.1594 20.7998 21.6013C20.7998 22.0432 21.158 22.4013 21.5999 22.4013H26.4001C26.8419 22.4013 27.2001 22.0432 27.2001 21.6013C27.2001 21.1595 26.842 20.8013 26.4001 20.8013Z" fill="#208EE2"/>
</g>
<defs>
<clipPath id="clip0_701_21533">
<rect width="48" height="48" fill="white"/>
</clipPath>
</defs>
</svg>
