<svg width="32" height="32" viewBox="0 0 32 32" fill="none" xmlns="http://www.w3.org/2000/svg">
<path d="M2.66699 2.66666H4.40854C4.73657 2.66666 4.90058 2.66666 5.03257 2.72698C5.14888 2.78013 5.24745 2.86562 5.31653 2.97325C5.39491 3.09538 5.4181 3.25775 5.46449 3.58247L6.09556 7.99999M6.09556 7.99999L7.49809 18.3085C7.67607 19.6167 7.76506 20.2708 8.07779 20.7631C8.35336 21.197 8.74844 21.5419 9.21547 21.7565C9.74548 22 10.4056 22 11.7258 22H23.1363C24.393 22 25.0214 22 25.5349 21.7739C25.9877 21.5745 26.3761 21.2531 26.6567 20.8456C26.9749 20.3835 27.0925 19.7662 27.3276 18.5317L29.0925 9.26624C29.1752 8.83173 29.2166 8.61448 29.1566 8.44466C29.104 8.29568 29.0002 8.17024 28.8637 8.09068C28.7081 7.99999 28.487 7.99999 28.0446 7.99999H6.09556ZM13.3337 28C13.3337 28.7364 12.7367 29.3333 12.0003 29.3333C11.2639 29.3333 10.667 28.7364 10.667 28C10.667 27.2636 11.2639 26.6667 12.0003 26.6667C12.7367 26.6667 13.3337 27.2636 13.3337 28ZM24.0003 28C24.0003 28.7364 23.4034 29.3333 22.667 29.3333C21.9306 29.3333 21.3337 28.7364 21.3337 28C21.3337 27.2636 21.9306 26.6667 22.667 26.6667C23.4034 26.6667 24.0003 27.2636 24.0003 28Z" stroke="#0867D6" stroke-width="2" stroke-linecap="round" stroke-linejoin="round"/>
<path d="M2.66699 2.66666H4.40854C4.73657 2.66666 4.90058 2.66666 5.03257 2.72698C5.14888 2.78013 5.24745 2.86562 5.31653 2.97325C5.39491 3.09538 5.4181 3.25775 5.46449 3.58247L6.09556 7.99999M6.09556 7.99999L7.49809 18.3085C7.67607 19.6167 7.76506 20.2708 8.07779 20.7631C8.35336 21.197 8.74844 21.5419 9.21547 21.7565C9.74548 22 10.4056 22 11.7258 22H23.1363C24.393 22 25.0214 22 25.5349 21.7739C25.9877 21.5745 26.3761 21.2531 26.6567 20.8456C26.9749 20.3835 27.0925 19.7662 27.3276 18.5317L29.0925 9.26624C29.1752 8.83173 29.2166 8.61448 29.1566 8.44466C29.104 8.29568 29.0002 8.17024 28.8637 8.09068C28.7081 7.99999 28.487 7.99999 28.0446 7.99999H6.09556ZM13.3337 28C13.3337 28.7364 12.7367 29.3333 12.0003 29.3333C11.2639 29.3333 10.667 28.7364 10.667 28C10.667 27.2636 11.2639 26.6667 12.0003 26.6667C12.7367 26.6667 13.3337 27.2636 13.3337 28ZM24.0003 28C24.0003 28.7364 23.4034 29.3333 22.667 29.3333C21.9306 29.3333 21.3337 28.7364 21.3337 28C21.3337 27.2636 21.9306 26.6667 22.667 26.6667C23.4034 26.6667 24.0003 27.2636 24.0003 28Z" stroke="#0696E7" stroke-width="2" stroke-linecap="round" stroke-linejoin="round"/>
<path d="M2.66699 2.66666H4.40854C4.73657 2.66666 4.90058 2.66666 5.03257 2.72698C5.14888 2.78013 5.24745 2.86562 5.31653 2.97325C5.39491 3.09538 5.4181 3.25775 5.46449 3.58247L6.09556 7.99999M6.09556 7.99999L7.49809 18.3085C7.67607 19.6167 7.76506 20.2708 8.07779 20.7631C8.35336 21.197 8.74844 21.5419 9.21547 21.7565C9.74548 22 10.4056 22 11.7258 22H23.1363C24.393 22 25.0214 22 25.5349 21.7739C25.9877 21.5745 26.3761 21.2531 26.6567 20.8456C26.9749 20.3835 27.0925 19.7662 27.3276 18.5317L29.0925 9.26624C29.1752 8.83173 29.2166 8.61448 29.1566 8.44466C29.104 8.29568 29.0002 8.17024 28.8637 8.09068C28.7081 7.99999 28.487 7.99999 28.0446 7.99999H6.09556ZM13.3337 28C13.3337 28.7364 12.7367 29.3333 12.0003 29.3333C11.2639 29.3333 10.667 28.7364 10.667 28C10.667 27.2636 11.2639 26.6667 12.0003 26.6667C12.7367 26.6667 13.3337 27.2636 13.3337 28ZM24.0003 28C24.0003 28.7364 23.4034 29.3333 22.667 29.3333C21.9306 29.3333 21.3337 28.7364 21.3337 28C21.3337 27.2636 21.9306 26.6667 22.667 26.6667C23.4034 26.6667 24.0003 27.2636 24.0003 28Z" stroke="#208EE2" stroke-width="2" stroke-linecap="round" stroke-linejoin="round"/>
</svg>
