<svg width="152" height="48" viewBox="0 0 152 48" fill="none" xmlns="http://www.w3.org/2000/svg">
<path d="M60.9034 14.2308H57.1377V11.6784H67.5746V14.2308H63.8088V24.7724H60.9017V14.2308H60.9034Z" fill="#333333"/>
<path d="M75.2002 23.2175C74.7529 23.7849 74.1879 24.2219 73.5034 24.5301C72.8205 24.8384 72.1121 24.9925 71.3781 24.9925C70.6816 24.9925 70.0261 24.8807 69.4116 24.6588C68.797 24.437 68.2627 24.1203 67.8086 23.707C67.3546 23.2937 66.9978 22.7975 66.7366 22.2182C66.4754 21.639 66.3457 20.992 66.3457 20.2773C66.3457 19.5625 66.4754 18.9155 66.7366 18.3363C66.9978 17.757 67.3546 17.2608 67.8086 16.8475C68.2627 16.4343 68.797 16.1175 69.4116 15.8957C70.0261 15.6738 70.6816 15.562 71.3781 15.562C72.0233 15.562 72.6106 15.6738 73.1398 15.8957C73.6672 16.1175 74.1145 16.4343 74.4815 16.8475C74.8485 17.2608 75.1302 17.757 75.3299 18.3363C75.5279 18.9155 75.6286 19.5625 75.6286 20.2773V21.1461H69.1419C69.2545 21.6763 69.4952 22.098 69.869 22.413C70.2412 22.728 70.7021 22.8838 71.2483 22.8838C71.7075 22.8838 72.0967 22.7822 72.4126 22.579C72.7284 22.3757 73.0049 22.1132 73.2422 21.7931L75.2002 23.2175ZM72.8325 19.261C72.8444 18.7919 72.6891 18.3922 72.3665 18.0585C72.0438 17.7266 71.6273 17.5589 71.1169 17.5589C70.8062 17.5589 70.5331 17.608 70.2975 17.7062C70.0619 17.8045 69.8588 17.9315 69.6915 18.0856C69.5242 18.2397 69.3928 18.4176 69.3006 18.6225C69.2084 18.8275 69.1538 19.0392 69.1419 19.261H72.8325Z" fill="#333333"/>
<path d="M77.3608 10.7909H80.157V24.7706H77.3608V10.7909Z" fill="#333333"/>
<path d="M90.7446 23.2175C90.2974 23.7849 89.7323 24.2219 89.0478 24.5301C88.365 24.8384 87.6565 24.9925 86.9225 24.9925C86.226 24.9925 85.5705 24.8807 84.956 24.6588C84.3415 24.437 83.8072 24.1203 83.3531 23.707C82.899 23.2937 82.5422 22.7975 82.281 22.2182C82.0199 21.639 81.8901 20.992 81.8901 20.2773C81.8901 19.5625 82.0199 18.9155 82.281 18.3363C82.5422 17.757 82.899 17.2608 83.3531 16.8475C83.8072 16.4343 84.3415 16.1175 84.956 15.8957C85.5705 15.6738 86.226 15.562 86.9225 15.562C87.5678 15.562 88.155 15.6738 88.6842 15.8957C89.2117 16.1175 89.6589 16.4343 90.0259 16.8475C90.3929 17.2608 90.6746 17.757 90.8743 18.3363C91.0724 18.9155 91.1731 19.5625 91.1731 20.2773V21.1461H84.6863C84.7989 21.6763 85.0396 22.098 85.4135 22.413C85.7856 22.728 86.2465 22.8838 86.7928 22.8838C87.252 22.8838 87.6412 22.7822 87.957 22.579C88.2728 22.3757 88.5493 22.1132 88.7866 21.7931L90.7446 23.2175ZM88.3769 19.261C88.3889 18.7919 88.2335 18.3922 87.9109 18.0585C87.5883 17.7266 87.1717 17.5589 86.6613 17.5589C86.3507 17.5589 86.0775 17.608 85.842 17.7062C85.6064 17.8045 85.4032 17.9315 85.2359 18.0856C85.0687 18.2397 84.9372 18.4176 84.845 18.6225C84.7529 18.8275 84.6982 19.0392 84.6863 19.261H88.3769Z" fill="#333333"/>
<path d="M96.9308 21.2765H92.3457V19.0578H96.9308V21.2765Z" fill="#333333"/>
<path d="M105.15 25.1043C104.143 25.1043 103.218 24.9282 102.373 24.5776C101.528 24.227 100.804 23.7426 100.201 23.1261C99.5988 22.5096 99.126 21.783 98.7846 20.9446C98.4432 20.1062 98.2725 19.2001 98.2725 18.2262C98.2725 17.2524 98.4432 16.3462 98.7846 15.5079C99.126 14.6695 99.5988 13.9429 100.201 13.3264C100.804 12.7099 101.528 12.2255 102.373 11.8749C103.218 11.5226 104.143 11.3481 105.15 11.3481C106.157 11.3481 107.083 11.5243 107.928 11.8749C108.773 12.2255 109.496 12.7099 110.099 13.3264C110.701 13.9429 111.174 14.6695 111.516 15.5079C111.857 16.3462 112.028 17.2524 112.028 18.2262C112.028 19.2001 111.857 20.1062 111.516 20.9446C111.174 21.783 110.701 22.5113 110.099 23.1261C109.496 23.7426 108.773 24.227 107.928 24.5776C107.083 24.9282 106.157 25.1043 105.15 25.1043ZM105.15 23.4394C105.908 23.4394 106.591 23.3005 107.2 23.0228C107.81 22.745 108.33 22.3724 108.766 21.9032C109.201 21.4341 109.536 20.8836 109.773 20.2485C110.008 19.6134 110.126 18.9393 110.126 18.2229C110.126 17.5081 110.008 16.8323 109.773 16.1972C109.537 15.5621 109.201 15.0099 108.766 14.5425C108.33 14.0733 107.808 13.7007 107.2 13.4229C106.591 13.1452 105.908 13.0063 105.15 13.0063C104.392 13.0063 103.708 13.1452 103.1 13.4229C102.491 13.7007 101.97 14.0733 101.535 14.5425C101.099 15.0116 100.765 15.5621 100.527 16.1972C100.292 16.8323 100.172 17.5064 100.172 18.2229C100.172 18.9376 100.29 19.6134 100.527 20.2485C100.763 20.8836 101.099 21.4358 101.535 21.9032C101.97 22.3724 102.491 22.745 103.1 23.0228C103.709 23.3005 104.392 23.4394 105.15 23.4394Z" fill="#333333"/>
<path d="M114.172 16.0057H115.85V17.2625H115.887C116.21 16.795 116.654 16.4309 117.221 16.1717C117.786 15.9126 118.366 15.7839 118.964 15.7839C119.646 15.7839 120.264 15.9007 120.817 16.1345C121.37 16.3682 121.842 16.6951 122.234 17.1151C122.625 17.5352 122.927 18.0246 123.139 18.5852C123.351 19.1459 123.457 19.7471 123.457 20.389C123.457 21.0428 123.351 21.6491 123.139 22.2097C122.927 22.7704 122.627 23.2581 122.234 23.6697C121.843 24.083 121.37 24.4065 120.817 24.6402C120.264 24.8739 119.646 24.9925 118.964 24.9925C118.33 24.9925 117.733 24.8604 117.175 24.5945C116.616 24.3286 116.186 23.9695 115.889 23.5122H115.852V29.9855H114.174V16.0057H114.172ZM118.757 17.337C118.31 17.337 117.905 17.4149 117.545 17.5673C117.185 17.7215 116.881 17.9315 116.632 18.1957C116.383 18.4616 116.191 18.7817 116.055 19.1577C115.918 19.5337 115.85 19.9436 115.85 20.3873C115.85 20.8311 115.918 21.241 116.055 21.617C116.191 21.993 116.384 22.3131 116.632 22.579C116.881 22.8449 117.185 23.0532 117.545 23.2073C117.905 23.3615 118.31 23.4394 118.757 23.4394C119.204 23.4394 119.609 23.3632 119.969 23.2073C120.329 23.0532 120.633 22.8432 120.882 22.579C121.132 22.3148 121.323 21.993 121.459 21.617C121.596 21.241 121.664 20.8311 121.664 20.3873C121.664 19.9436 121.596 19.5337 121.459 19.1577C121.323 18.7817 121.13 18.4616 120.882 18.1957C120.633 17.9315 120.329 17.7215 119.969 17.5673C119.607 17.4149 119.204 17.337 118.757 17.337Z" fill="#333333"/>
<path d="M130.293 17.4488H127.89V21.4256C127.89 21.6728 127.897 21.915 127.908 22.1556C127.92 22.3961 127.967 22.6112 128.048 22.8025C128.129 22.9939 128.253 23.1481 128.421 23.2649C128.588 23.3818 128.834 23.4411 129.156 23.4411C129.354 23.4411 129.559 23.4224 129.771 23.3852C129.983 23.3479 130.175 23.2802 130.348 23.1819V24.6978C130.148 24.8096 129.892 24.8858 129.575 24.9281C129.257 24.9705 129.013 24.9925 128.839 24.9925C128.192 24.9925 127.693 24.9027 127.338 24.7249C126.985 24.5471 126.724 24.315 126.556 24.0322C126.389 23.7493 126.288 23.4309 126.258 23.0803C126.227 22.728 126.212 22.374 126.212 22.0167V17.4488H124.272V16.0058H126.212V13.5465H127.89V16.0058H130.293V17.4488Z" fill="#333333"/>
<path d="M132.195 12.8623C132.195 12.5303 132.316 12.2424 132.558 12.0019C132.801 11.7614 133.089 11.6411 133.426 11.6411C133.76 11.6411 134.05 11.7614 134.293 12.0019C134.535 12.2424 134.656 12.5286 134.656 12.8623C134.656 13.1959 134.535 13.4822 134.293 13.7227C134.05 13.9632 133.762 14.0834 133.426 14.0834C133.089 14.0834 132.801 13.9632 132.558 13.7227C132.316 13.4822 132.195 13.1942 132.195 12.8623ZM132.586 16.0058H134.264V24.7706H132.586V16.0058Z" fill="#333333"/>
<path d="M143.248 18.3363C142.938 18.0162 142.611 17.7723 142.27 17.6063C141.929 17.4403 141.521 17.3573 141.05 17.3573C140.59 17.3573 140.189 17.4403 139.848 17.6063C139.506 17.7723 139.22 18.0009 138.991 18.2905C138.76 18.5802 138.586 18.9138 138.468 19.2898C138.351 19.6658 138.291 20.0571 138.291 20.4636C138.291 20.87 138.359 21.2562 138.496 21.6187C138.632 21.9828 138.825 22.2995 139.073 22.5705C139.322 22.8415 139.619 23.0549 139.967 23.209C140.315 23.3632 140.706 23.4411 141.142 23.4411C141.615 23.4411 142.017 23.3581 142.354 23.1921C142.688 23.0261 142.999 22.7822 143.286 22.4621L144.479 23.646C144.044 24.127 143.538 24.4725 142.96 24.6809C142.381 24.8892 141.77 24.9959 141.125 24.9959C140.442 24.9959 139.817 24.8841 139.252 24.6622C138.687 24.4403 138.199 24.1287 137.789 23.729C137.379 23.3293 137.062 22.8483 136.838 22.286C136.615 21.7254 136.502 21.1055 136.502 20.428C136.502 19.7505 136.615 19.1272 136.838 18.5598C137.062 17.9925 137.376 17.5064 137.779 17.0982C138.182 16.6917 138.666 16.3733 139.233 16.1463C139.798 15.9177 140.428 15.8042 141.125 15.8042C141.77 15.8042 142.39 15.9177 142.978 16.1463C143.569 16.375 144.081 16.7222 144.517 17.1913L143.248 18.3363Z" fill="#333333"/>
<path d="M150.611 18.2059C150.411 17.9586 150.167 17.752 149.875 17.586C149.583 17.42 149.226 17.337 148.803 17.337C148.405 17.337 148.06 17.42 147.769 17.586C147.477 17.752 147.33 17.9959 147.33 18.316C147.33 18.5751 147.413 18.7851 147.581 18.9443C147.748 19.1053 147.948 19.234 148.177 19.3322C148.407 19.4304 148.651 19.505 148.912 19.5541C149.173 19.6032 149.397 19.6472 149.583 19.6828C149.943 19.7692 150.281 19.8742 150.599 19.9978C150.916 20.1215 151.189 20.2807 151.418 20.4788C151.649 20.677 151.828 20.9158 151.959 21.2003C152.089 21.4849 152.156 21.8287 152.156 22.2352C152.156 22.7281 152.05 23.1515 151.838 23.5021C151.626 23.8544 151.353 24.1406 151.019 24.3625C150.682 24.5844 150.302 24.7452 149.873 24.8435C149.445 24.9417 149.013 24.9908 148.578 24.9908C147.844 24.9908 147.202 24.8791 146.649 24.6572C146.096 24.4353 145.602 24.0288 145.167 23.436L146.434 22.4012C146.707 22.6722 147.011 22.9127 147.347 23.1227C147.683 23.3327 148.093 23.4377 148.578 23.4377C148.789 23.4377 149.003 23.4157 149.221 23.3734C149.438 23.331 149.631 23.2616 149.798 23.1701C149.966 23.077 150.102 22.9601 150.208 22.8178C150.314 22.6756 150.367 22.513 150.367 22.3284C150.367 22.0811 150.288 21.8778 150.133 21.7186C149.977 21.5577 149.791 21.4324 149.573 21.3392C149.356 21.2461 149.126 21.1732 148.883 21.1174C148.641 21.0615 148.427 21.0157 148.24 20.9785C147.879 20.8921 147.538 20.7939 147.214 20.6821C146.891 20.5703 146.604 20.4229 146.357 20.2383C146.108 20.0537 145.91 19.82 145.761 19.5355C145.613 19.2526 145.537 18.9003 145.537 18.482C145.537 18.0264 145.633 17.6284 145.826 17.2896C146.019 16.9509 146.273 16.6697 146.591 16.4478C146.908 16.226 147.268 16.06 147.671 15.9482C148.074 15.8364 148.482 15.7822 148.892 15.7822C149.488 15.7822 150.059 15.894 150.606 16.1142C151.152 16.3361 151.587 16.7053 151.91 17.2236L150.611 18.2059Z" fill="#333333"/>
<path d="M57.979 32.8936H58.7164L59.6382 35.6475L60.5685 32.8936H61.306L61.9734 36.8416H61.2411L60.8144 34.3484L59.9694 36.8416H59.3019L58.4638 34.3484L58.0267 36.8416H57.2876L57.979 32.8936Z" fill="#5499D1"/>
<path d="M63.7932 32.8936H64.5614L66.0926 36.8416H65.3056L64.9949 36.0286H63.3715L63.0472 36.8416H62.2603L63.7932 32.8936ZM64.1807 33.9403L63.6464 35.2952H64.7116L64.1807 33.9403Z" fill="#5499D1"/>
<path d="M66.6748 32.8936H68.6499V33.6286H67.4276V36.8416H66.6748V32.8936Z" fill="#5499D1"/>
<path d="M70.4558 32.8936H71.224L72.7552 36.8416H71.9682L71.6575 36.0286H70.0341L69.7098 36.8416H68.9229L70.4558 32.8936ZM70.845 33.9403L70.3107 35.2952H71.3759L70.845 33.9403Z" fill="#5499D1"/>
<path d="M73.5284 35.8135C73.7298 36.0913 73.9637 36.2301 74.2334 36.2301C74.4127 36.2301 74.5577 36.1793 74.667 36.0794C74.7762 35.9795 74.8326 35.8457 74.8326 35.6797C74.8326 35.5171 74.7797 35.3816 74.6721 35.2749C74.5646 35.1682 74.3427 35.114 74.0047 35.114H73.8425V34.4433H74.0047C74.2044 34.4433 74.3563 34.3976 74.4604 34.3061C74.5646 34.2146 74.6158 34.0927 74.6158 33.9386C74.6158 33.798 74.5731 33.6845 74.4861 33.6032C74.399 33.5219 74.2846 33.4796 74.1412 33.4796C73.9705 33.4796 73.7964 33.5626 73.6172 33.7286L73.1699 33.234C73.4106 33.0189 73.6103 32.8902 73.7708 32.8495C73.9313 32.8072 74.0798 32.7869 74.2146 32.7869C74.5407 32.7869 74.8121 32.88 75.034 33.068C75.2559 33.256 75.3652 33.5101 75.3652 33.8285C75.3652 33.9691 75.3396 34.1079 75.2901 34.2417C75.2406 34.3755 75.1023 34.5178 74.8753 34.6686C75.3413 34.8735 75.5734 35.2258 75.5734 35.7237C75.5734 36.0913 75.4488 36.386 75.2013 36.6078C74.9538 36.8314 74.6346 36.9415 74.2437 36.9415C73.9978 36.9415 73.7776 36.8975 73.583 36.8094C73.3884 36.7213 73.175 36.5299 72.9463 36.2369L73.5284 35.8135Z" fill="#5499D1"/>
<path d="M79.1976 32.8936V36.8416H78.4397V34.3688L76.9563 36.8416H76.2974V32.8936H77.0553V35.446L78.5592 32.8936H79.1976Z" fill="#5499D1"/>
<path d="M80.104 32.8936H80.8722V34.3823H82.2003V32.8936H82.9667V36.8416H82.2003V35.1106H80.8722V36.8416H80.104V32.8936Z" fill="#5499D1"/>
<path d="M87.3045 32.7936C87.8679 32.7936 88.3509 32.9952 88.7572 33.4C89.1618 33.8048 89.3649 34.2976 89.3649 34.8786C89.3649 35.4544 89.1652 35.9422 88.7658 36.3419C88.3663 36.7416 87.8815 36.9398 87.3114 36.9398C86.7139 36.9398 86.2171 36.7349 85.8228 36.325C85.4268 35.9151 85.2305 35.429 85.2305 34.865C85.2305 34.4873 85.3226 34.1401 85.507 33.8234C85.6914 33.5067 85.944 33.256 86.2666 33.0697C86.5859 32.8868 86.9324 32.7936 87.3045 32.7936ZM87.296 33.5287C86.9273 33.5287 86.6183 33.6557 86.3674 33.9098C86.1164 34.1638 85.9901 34.4873 85.9901 34.8786C85.9901 35.3155 86.1489 35.6611 86.4647 35.9151C86.7105 36.1133 86.9921 36.2132 87.3097 36.2132C87.6681 36.2132 87.9754 36.0845 88.228 35.8271C88.4807 35.5696 88.607 35.2512 88.607 34.8735C88.607 34.4975 88.479 34.1791 88.2246 33.92C87.9703 33.6608 87.6613 33.5287 87.296 33.5287Z" fill="#5499D1"/>
<path d="M90.0767 32.8936H92.9394V36.8416H92.1729V33.5964H90.8448V36.8416H90.0767V32.8936Z" fill="#5499D1"/>
<path d="M93.4548 32.8936H95.6535V33.6337H94.928V36.8416H94.1598V33.6337H93.4531V32.8936H93.4548Z" fill="#5499D1"/>
<path d="M99.0712 32.8936V36.8416H98.3133V34.3688L96.8298 36.8416H96.1709V32.8936H96.9288V35.446L98.4327 32.8936H99.0712Z" fill="#5499D1"/>
<path d="M101.722 35.1106H101.468C101.102 35.1106 100.831 35.092 100.657 35.0547C100.483 35.0174 100.315 34.9378 100.158 34.8142C99.9995 34.6923 99.8885 34.5432 99.8219 34.3688C99.757 34.1943 99.7246 33.964 99.7246 33.676V32.8936H100.493V33.6642C100.493 33.9318 100.542 34.1198 100.64 34.2248C100.737 34.3298 100.945 34.3823 101.263 34.3823H101.722V32.8936H102.485V36.8416H101.722V35.1106Z" fill="#5499D1"/>
<path d="M103.396 32.8936H105.57V33.6286H104.149V34.3434H105.57V35.0649H104.149V36.1031H105.57V36.8416H103.396V32.8936Z" fill="#5499D1"/>
<path d="M109.933 33.5863L109.404 34.0876C109.044 33.7099 108.637 33.5203 108.187 33.5203C107.806 33.5203 107.487 33.649 107.226 33.9064C106.965 34.1638 106.835 34.4823 106.835 34.86C106.835 35.1225 106.893 35.3579 107.007 35.5612C107.123 35.7661 107.285 35.9253 107.497 36.0422C107.709 36.159 107.943 36.2166 108.2 36.2166C108.421 36.2166 108.62 36.176 108.803 36.0947C108.986 36.0134 109.185 35.8643 109.404 35.6492L109.918 36.181C109.624 36.4656 109.346 36.6637 109.085 36.7738C108.824 36.8839 108.525 36.9381 108.189 36.9381C107.571 36.9381 107.064 36.7433 106.669 36.3538C106.275 35.9642 106.079 35.4663 106.079 34.8566C106.079 34.4636 106.169 34.113 106.348 33.8065C106.528 33.4999 106.785 33.2543 107.12 33.068C107.454 32.8817 107.815 32.7886 108.2 32.7886C108.528 32.7886 108.844 32.858 109.148 32.9952C109.452 33.1375 109.713 33.3339 109.933 33.5863Z" fill="#5499D1"/>
<path d="M110.602 32.8936H111.369V34.2553L112.449 32.8936H113.359L111.969 34.655L113.494 36.8416H112.596L111.369 35.0869V36.8416H110.602V32.8936Z" fill="#5499D1"/>
<path d="M116.93 32.8936V36.8416H116.172V34.3688L114.689 36.8416H114.03V32.8936H114.788V35.446L116.292 32.8936H116.93Z" fill="#5499D1"/>
<path d="M117.581 32.8936H118.433L119.269 34.1604L120.107 32.8936H120.959L119.696 34.8074L121.037 36.8416H120.186L119.269 35.4527L118.354 36.8416H117.497L118.844 34.8057L117.581 32.8936Z" fill="#5499D1"/>
<path d="M123.154 32.8936H126.017V36.8416H125.25V33.5964H123.922V36.8416H123.154V32.8936Z" fill="#5499D1"/>
<path d="M126.923 32.8936H127.727C128.162 32.8936 128.475 32.9325 128.668 33.0138C128.859 33.0934 129.011 33.2221 129.122 33.4C129.233 33.5778 129.287 33.7912 129.287 34.0402C129.287 34.3163 129.214 34.5449 129.069 34.7278C128.924 34.9107 128.727 35.0378 128.478 35.1089C128.331 35.1496 128.065 35.1716 127.679 35.1716V36.8432H126.921V32.8936H126.923ZM127.681 34.4365H127.922C128.111 34.4365 128.243 34.423 128.316 34.3959C128.389 34.3688 128.447 34.3247 128.49 34.2621C128.533 34.1994 128.553 34.1249 128.553 34.0368C128.553 33.8844 128.494 33.7726 128.374 33.7031C128.287 33.6506 128.127 33.6252 127.893 33.6252H127.679V34.4365H127.681Z" fill="#5499D1"/>
<path d="M132.927 32.8936V36.8416H132.169V34.3688L130.686 36.8416H130.027V32.8936H130.785V35.446L132.289 32.8936H132.927Z" fill="#5499D1"/>
<path d="M133.833 36.8416V32.8936H135.914V33.6269H134.591V34.384H134.757C135.093 34.384 135.366 34.4213 135.58 34.4941C135.793 34.5669 135.969 34.7058 136.111 34.909C136.252 35.1123 136.322 35.3528 136.322 35.6306C136.322 35.9066 136.269 36.1251 136.162 36.2894C136.054 36.4537 135.909 36.5858 135.721 36.6891C135.534 36.7924 135.276 36.8432 134.946 36.8432H133.833V36.8416ZM134.591 35.0547V36.1251H134.781C135.127 36.1251 135.346 36.0811 135.438 35.9913C135.53 35.9016 135.576 35.7813 135.576 35.6289C135.576 35.2461 135.3 35.0547 134.748 35.0547H134.591Z" fill="#5499D1"/>
<path d="M138.866 32.7936C139.429 32.7936 139.912 32.9952 140.318 33.4C140.723 33.8048 140.926 34.2976 140.926 34.8786C140.926 35.4544 140.726 35.9422 140.327 36.3419C139.927 36.7416 139.443 36.9398 138.872 36.9398C138.275 36.9398 137.778 36.7349 137.384 36.325C136.988 35.9151 136.792 35.429 136.792 34.865C136.792 34.4873 136.884 34.1401 137.068 33.8234C137.252 33.5067 137.505 33.256 137.828 33.0697C138.147 32.8868 138.495 32.7936 138.866 32.7936ZM138.859 33.5287C138.49 33.5287 138.181 33.6557 137.93 33.9098C137.679 34.1638 137.553 34.4873 137.553 34.8786C137.553 35.3155 137.712 35.6611 138.027 35.9151C138.273 36.1133 138.555 36.2132 138.872 36.2132C139.231 36.2132 139.538 36.0845 139.791 35.8271C140.043 35.5696 140.17 35.2512 140.17 34.8735C140.17 34.4975 140.042 34.1791 139.787 33.92C139.533 33.6608 139.222 33.5287 138.859 33.5287Z" fill="#5499D1"/>
<path d="M141.638 32.8936H142.442C142.877 32.8936 143.19 32.9325 143.383 33.0138C143.574 33.0934 143.726 33.2221 143.837 33.4C143.948 33.5778 144.002 33.7912 144.002 34.0402C144.002 34.3163 143.929 34.5449 143.784 34.7278C143.639 34.9107 143.442 35.0378 143.193 35.1089C143.046 35.1496 142.78 35.1716 142.394 35.1716V36.8432H141.636V32.8936H141.638ZM142.396 34.4365H142.637C142.826 34.4365 142.957 34.423 143.031 34.3959C143.104 34.3688 143.162 34.3247 143.205 34.2621C143.248 34.1994 143.268 34.1249 143.268 34.0368C143.268 33.8844 143.208 33.7726 143.089 33.7031C143.002 33.6506 142.841 33.6252 142.608 33.6252H142.394V34.4365H142.396Z" fill="#5499D1"/>
<path d="M146.622 32.7936C147.186 32.7936 147.669 32.9952 148.075 33.4C148.48 33.8048 148.683 34.2976 148.683 34.8786C148.683 35.4544 148.483 35.9422 148.084 36.3419C147.684 36.7416 147.199 36.9398 146.629 36.9398C146.032 36.9398 145.535 36.7349 145.141 36.325C144.745 35.9151 144.548 35.429 144.548 34.865C144.548 34.4873 144.641 34.1401 144.825 33.8234C145.009 33.5067 145.262 33.256 145.585 33.0697C145.904 32.8868 146.25 32.7936 146.622 32.7936ZM146.614 33.5287C146.245 33.5287 145.936 33.6557 145.685 33.9098C145.434 34.1638 145.308 34.4873 145.308 34.8786C145.308 35.3155 145.467 35.6611 145.783 35.9151C146.028 36.1133 146.31 36.2132 146.628 36.2132C146.986 36.2132 147.293 36.0845 147.546 35.8271C147.799 35.5696 147.925 35.2512 147.925 34.8735C147.925 34.4975 147.797 34.1791 147.543 33.92C147.288 33.6608 146.979 33.5287 146.614 33.5287Z" fill="#5499D1"/>
<path d="M149.396 36.8416V32.8936H150.023C150.387 32.8936 150.651 32.9173 150.82 32.963C151.059 33.0257 151.249 33.1425 151.389 33.3119C151.53 33.4813 151.6 33.6828 151.6 33.9132C151.6 34.0639 151.568 34.1994 151.505 34.323C151.44 34.445 151.337 34.5601 151.192 34.6685C151.435 34.782 151.611 34.9226 151.723 35.092C151.836 35.2613 151.89 35.4612 151.89 35.6915C151.89 35.9134 151.832 36.115 151.716 36.2979C151.6 36.4808 151.452 36.6163 151.269 36.7078C151.086 36.7975 150.836 36.8432 150.513 36.8432H149.396V36.8416ZM150.154 33.61V34.4416H150.32C150.504 34.4416 150.643 34.4026 150.731 34.3264C150.822 34.2502 150.866 34.1452 150.866 34.0131C150.866 33.8894 150.824 33.7912 150.738 33.7184C150.653 33.6456 150.523 33.61 150.349 33.61H150.154ZM150.154 35.1123V36.1234H150.344C150.658 36.1234 150.87 36.0845 150.981 36.0049C151.09 35.927 151.145 35.8118 151.145 35.661C151.145 35.4917 151.08 35.3562 150.952 35.2579C150.824 35.1597 150.61 35.1106 150.311 35.1106H150.154V35.1123Z" fill="#5499D1"/>
<path d="M11.464 35.9761C12.5784 35.9761 13.4818 35.0798 13.4818 33.9741C13.4818 32.8685 12.5784 31.9722 11.464 31.9722C10.3497 31.9722 9.44629 32.8685 9.44629 33.9741C9.44629 35.0798 10.3497 35.9761 11.464 35.9761Z" fill="#F9E585"/>
<path d="M42.4159 35.1004C34.2187 43.2336 21.0027 43.3504 12.6603 35.451C12.3053 35.6458 11.8973 35.7576 11.4637 35.7576C10.0964 35.7576 8.98848 34.6584 8.98848 33.3017C8.98848 32.7123 9.19844 32.172 9.54668 31.7486C7.63649 28.866 6.51325 25.6208 6.17526 22.3114C6.02504 22.3622 5.86287 22.391 5.69387 22.391C4.87107 22.391 4.20362 21.7287 4.20362 20.9124C4.20362 20.096 4.87107 19.4338 5.69387 19.4338C5.82531 19.4338 5.95334 19.4524 6.07454 19.4846C6.24013 14.3053 8.3159 9.17507 12.3002 5.22199C13.8502 3.68412 15.5777 2.43417 17.4196 1.47046C13.6231 2.5341 10.04 4.5479 7.05268 7.51186C-2.26951 16.7611 -2.26951 31.7571 7.05268 41.008C16.3749 50.259 31.4891 50.2573 40.813 41.008C44.9219 36.9313 47.2196 31.7385 47.7061 26.4118C46.716 29.5875 44.9543 32.5836 42.4159 35.1004Z" fill="#F9E585"/>
<path d="M5.69396 22.4519C6.35202 22.4519 6.88548 21.9226 6.88548 21.2697C6.88548 20.6168 6.35202 20.0875 5.69396 20.0875C5.0359 20.0875 4.50244 20.6168 4.50244 21.2697C4.50244 21.9226 5.0359 22.4519 5.69396 22.4519Z" fill="#F9E585"/>
<path d="M47.7041 5.44897C47.9209 6.86998 49.0459 7.98613 50.4781 8.20123C49.0459 8.41633 47.9209 9.53247 47.7041 10.9535C47.4873 9.53247 46.3624 8.41633 44.9302 8.20123C46.3624 7.98782 47.4873 6.87168 47.7041 5.44897Z" fill="#F9E585"/>
<path d="M18.6354 7.40179C18.7463 8.12839 19.3216 8.69916 20.0539 8.80925C19.3216 8.91934 18.7463 9.49012 18.6354 10.2167C18.5244 9.49012 17.9491 8.91934 17.2168 8.80925C17.9491 8.70086 18.5244 8.13008 18.6354 7.40179Z" fill="#F9E585"/>
<path d="M4.25498 0.0596313C4.36594 0.786226 4.94122 1.357 5.67354 1.46709C4.94122 1.57718 4.36594 2.14795 4.25498 2.87455C4.14402 2.14795 3.56875 1.57718 2.83643 1.46709C3.56875 1.357 4.14232 0.786226 4.25498 0.0596313Z" fill="#F9E585"/>
<path d="M48.8531 38.6522C49.0665 40.0495 50.171 41.1453 51.5793 41.357C50.171 41.5687 49.0665 42.6645 48.8531 44.0618C48.6397 42.6645 47.5353 41.5687 46.127 41.357C47.5353 41.1453 48.6397 40.0495 48.8531 38.6522Z" fill="#F9E585"/>
<path d="M47.7043 16.9644C47.8272 17.7706 48.4656 18.4041 49.2782 18.526C48.4656 18.6479 47.8272 19.2814 47.7043 20.0876C47.5814 19.2814 46.9429 18.6479 46.1304 18.526C46.9429 18.4024 47.5814 17.7706 47.7043 16.9644Z" fill="#F9E585"/>
<path d="M43.7866 19.2576L40.941 11.0568C40.8829 10.8891 40.6969 10.7993 40.5279 10.8569L39.5019 11.2075C39.3961 11.2431 39.3227 11.3278 39.2937 11.4277L32.0626 13.8988L31.4976 12.2712L33.867 11.4616C33.9472 11.5801 34.1008 11.6377 34.2425 11.5886L35.2429 11.2465C35.4119 11.1889 35.5023 11.0043 35.4443 10.8366L34.6061 8.42139C34.5481 8.25372 34.362 8.16395 34.193 8.22154L33.1944 8.56366C33.0254 8.62125 32.9349 8.80586 32.993 8.97354L28.3788 10.5504C28.2644 10.5893 28.1876 10.6876 28.1671 10.7976C28.1535 10.801 28.1381 10.8027 28.1245 10.8078L26.0487 11.5175C25.8797 11.575 25.7892 11.7597 25.8473 11.9273L26.3952 13.5042C26.4533 13.6718 26.6393 13.7616 26.8083 13.704L28.8841 12.9944C28.8978 12.9893 28.9114 12.9825 28.9234 12.9757C29.0087 13.0503 29.1299 13.0807 29.2443 13.0418L29.3723 12.9978L29.9374 14.6254L25.7602 16.0532C25.3369 16.1971 25.1098 16.6595 25.2566 17.0796L25.3795 17.4352L23.8159 17.9687L14.9034 21.014C14.5193 21.1461 14.3127 21.5645 14.4459 21.9472L14.7719 22.8889L14.7753 22.9008L14.3213 23.0566L8.14687 25.1653C8.05469 25.1229 7.94544 25.1128 7.84302 25.1483L6.51152 25.6039L6.09329 24.3963C6.05062 24.2727 5.94307 24.1897 5.82016 24.1677C5.82016 24.1626 5.81846 24.1592 5.81675 24.1541C5.84406 24.1338 5.85943 24.1152 5.8526 24.0999C5.84748 24.0864 5.82699 24.0796 5.79627 24.0796L5.76383 23.9864C5.78773 23.9678 5.80139 23.9492 5.79627 23.9356C5.79114 23.9221 5.76895 23.9153 5.73823 23.9153L5.48046 23.1701C5.41559 22.9821 5.21416 22.8957 5.03151 22.977L4.97005 23.0041C4.78911 23.0854 4.48184 23.1904 4.28723 23.2378L4.21554 23.2548C4.02093 23.3022 3.9168 23.4936 3.98167 23.6816L4.24114 24.4285C4.22066 24.4454 4.21042 24.4624 4.21383 24.4742C4.21895 24.4861 4.23773 24.4928 4.26334 24.4928L4.29748 24.5928C4.27699 24.6097 4.26504 24.6267 4.27016 24.6385C4.27529 24.6521 4.29577 24.6588 4.32479 24.6588C4.3265 24.6639 4.3282 24.669 4.33162 24.6724C4.24968 24.7638 4.21554 24.896 4.25821 25.0196L4.67815 26.2272C4.67815 26.2289 4.67986 26.2289 4.67986 26.2306C4.48525 26.3119 4.38283 26.5321 4.45282 26.7336L5.30805 29.1979C5.38145 29.408 5.61361 29.5214 5.82699 29.4486L8.96455 28.3765C9.06868 28.3409 9.1472 28.2681 9.19329 28.1766L15.3677 26.0663L15.8218 25.9105L16.1529 26.864C16.2861 27.2451 16.7077 27.45 17.0935 27.3179L21.5574 25.7919V27.76H19.7702C19.5448 27.76 19.3622 27.9429 19.3622 28.1648V28.7525C19.3622 28.9761 19.5448 29.1573 19.7702 29.1573H21.8818L16.7163 42.5629C16.7094 42.5798 16.706 42.5967 16.7026 42.612L14.6507 47.9353H16.1751L21.0829 35.2072L21.0744 35.2038L23.1228 29.8873V34.4772V38.9587V47.9336H24.5465V34.484H24.5448V29.9601L29.5959 43.0727C29.6079 43.1032 29.625 43.1286 29.6454 43.1506L31.4925 47.942H33.0169L27.9145 34.7075L27.8974 34.7143L25.7585 29.1624H27.8957C28.121 29.1624 28.3037 28.9795 28.3037 28.7576V28.1699C28.3037 27.9463 28.1193 27.7651 27.8957 27.7651H26.2109V24.2032L27.0405 23.9204L27.4826 23.7696L27.5663 23.7408L27.5628 23.7324L27.6892 24.0965C27.8343 24.5166 28.3003 24.7418 28.7236 24.5962L42.2588 19.9707C42.3425 20.0317 42.4534 20.0537 42.5593 20.0181L43.5852 19.6675C43.7542 19.6099 43.8447 19.4253 43.7866 19.2576Z" fill="#5499D1"/>
</svg>
