<svg width="21" height="17" viewBox="0 0 21 17" fill="none" xmlns="http://www.w3.org/2000/svg">
<path d="M0.317173 7.90761C2.46554 6.75094 4.86369 5.78553 7.1044 4.81521C10.9593 3.22589 14.8295 1.66412 18.7388 0.210134C19.4994 -0.0375962 20.866 -0.279833 21 0.821879C20.9266 2.3814 20.6247 3.9318 20.4177 5.48219C19.8922 8.89164 19.2848 12.2894 18.6925 15.6877C18.4884 16.8196 17.0377 17.4056 16.1095 16.6812C13.8787 15.2084 11.6308 13.7498 9.42856 12.2429C8.70716 11.5264 9.37612 10.4974 10.0204 9.98575C11.8577 8.21591 13.8062 6.71222 15.5475 4.85091C16.0172 3.74225 14.6294 4.67659 14.1716 4.9629C11.6563 6.65715 9.20256 8.45484 6.55064 9.94386C5.19605 10.6727 3.61724 10.0499 2.26326 9.64317C1.04927 9.15185 -0.729718 8.65685 0.317051 7.90775L0.317173 7.90761Z" fill="#0867D6"/>
<path d="M0.317173 7.90761C2.46554 6.75094 4.86369 5.78553 7.1044 4.81521C10.9593 3.22589 14.8295 1.66412 18.7388 0.210134C19.4994 -0.0375962 20.866 -0.279833 21 0.821879C20.9266 2.3814 20.6247 3.9318 20.4177 5.48219C19.8922 8.89164 19.2848 12.2894 18.6925 15.6877C18.4884 16.8196 17.0377 17.4056 16.1095 16.6812C13.8787 15.2084 11.6308 13.7498 9.42856 12.2429C8.70716 11.5264 9.37612 10.4974 10.0204 9.98575C11.8577 8.21591 13.8062 6.71222 15.5475 4.85091C16.0172 3.74225 14.6294 4.67659 14.1716 4.9629C11.6563 6.65715 9.20256 8.45484 6.55064 9.94386C5.19605 10.6727 3.61724 10.0499 2.26326 9.64317C1.04927 9.15185 -0.729718 8.65685 0.317051 7.90775L0.317173 7.90761Z" fill="#0696E7"/>
<path d="M0.317173 7.90761C2.46554 6.75094 4.86369 5.78553 7.1044 4.81521C10.9593 3.22589 14.8295 1.66412 18.7388 0.210134C19.4994 -0.0375962 20.866 -0.279833 21 0.821879C20.9266 2.3814 20.6247 3.9318 20.4177 5.48219C19.8922 8.89164 19.2848 12.2894 18.6925 15.6877C18.4884 16.8196 17.0377 17.4056 16.1095 16.6812C13.8787 15.2084 11.6308 13.7498 9.42856 12.2429C8.70716 11.5264 9.37612 10.4974 10.0204 9.98575C11.8577 8.21591 13.8062 6.71222 15.5475 4.85091C16.0172 3.74225 14.6294 4.67659 14.1716 4.9629C11.6563 6.65715 9.20256 8.45484 6.55064 9.94386C5.19605 10.6727 3.61724 10.0499 2.26326 9.64317C1.04927 9.15185 -0.729718 8.65685 0.317051 7.90775L0.317173 7.90761Z" fill="#419FD9"/>
</svg>
